<?xml version="1.0" standalone="no"?>
<!DOCTYPE svg PUBLIC "-//W3C//DTD SVG 20010904//EN"
 "http://www.w3.org/TR/2001/REC-SVG-20010904/DTD/svg10.dtd">
<svg version="1.0" xmlns="http://www.w3.org/2000/svg"
 width="700.000000pt" height="700.000000pt" viewBox="0 0 700.000000 700.000000"
 preserveAspectRatio="xMidYMid meet">
<metadata>
Created by potrace 1.11, written by Peter Selinger 2001-2013
</metadata>
<g transform="translate(0.000000,700.000000) scale(0.100000,-0.100000)"
fill="#000000" stroke="none">
<path d="M3520 6752 c-25 -8 -48 -32 -68 -71 -11 -20 -28 -52 -39 -71 -11 -19
-165 -289 -343 -600 -177 -311 -337 -591 -356 -623 -41 -71 -44 -114 -9 -147
24 -23 26 -23 290 -23 146 -1 265 -2 265 -4 0 -5 -129 -267 -138 -280 -4 -7
-33 -18 -63 -24 -58 -11 -69 -13 -139 -28 -306 -64 -708 -247 -991 -452 l-67
-48 -22 92 c-96 407 -318 864 -559 1153 -14 17 -39 46 -54 65 -45 53 -187 197
-236 237 -24 21 -55 47 -70 60 -98 86 -346 226 -486 276 -97 35 -272 76 -321
76 -90 0 -107 -67 -108 -420 0 -261 12 -394 58 -615 92 -443 322 -928 598
-1259 131 -156 323 -335 447 -416 l24 -16 -63 -104 c-160 -265 -270 -554 -325
-855 -14 -79 -20 -163 -19 -300 1 -132 9 -199 39 -358 15 -74 90 -278 139
-377 107 -214 215 -361 406 -550 274 -274 616 -482 1040 -635 70 -26 328 -100
376 -108 16 -3 63 -12 104 -21 81 -16 118 -22 195 -31 28 -4 61 -8 75 -11 146
-24 619 -24 798 1 218 29 215 29 342 56 430 90 827 262 1160 502 47 33 87 63
90 67 3 3 30 25 60 50 63 51 225 212 288 285 208 245 357 555 414 862 27 150
30 419 4 558 -9 50 -19 104 -22 120 -10 56 -54 212 -74 260 -4 11 -25 63 -45
115 -43 108 -135 290 -202 398 -25 40 -42 77 -37 81 5 4 50 38 99 76 131 100
248 213 356 345 30 36 56 67 59 70 17 14 134 189 184 272 156 266 296 609 341
838 2 8 8 33 13 55 22 83 47 240 60 380 10 115 6 477 -6 564 -18 125 -50 140
-222 102 -274 -61 -507 -185 -779 -416 -80 -68 -279 -291 -344 -385 -154 -224
-230 -359 -320 -570 -40 -94 -120 -324 -131 -375 -3 -11 -15 -59 -27 -107
l-21 -87 -52 37 c-253 185 -547 330 -854 422 l-122 36 33 30 c18 16 91 81 162
144 71 63 136 122 145 130 9 8 45 41 80 72 36 31 92 82 125 112 33 31 81 73
107 93 58 47 83 90 74 127 -6 26 -37 60 -56 62 -6 1 -134 2 -285 3 l-274 1
180 218 c100 119 198 237 219 262 21 25 120 144 221 265 100 121 186 221 190
223 5 2 11 19 15 37 7 38 -18 91 -46 98 -24 6 -1461 5 -1480 -1z"/>
</g>
</svg>
