<svg xmlns="http://www.w3.org/2000/svg" width="24" height="24" viewBox="0 0 24 24"><defs><style>.a{fill:none;}.b{fill:#939393;}</style></defs><rect class="a" width="24" height="24"/><path class="b" d="M19,5H17V3H7V5H5A2.006,2.006,0,0,0,3,7V8a4.991,4.991,0,0,0,4.39,4.94A5.009,5.009,0,0,0,11,15.9V19H7v2H17V19H13V15.9a5.009,5.009,0,0,0,3.61-2.96A4.991,4.991,0,0,0,21,8V7A2.006,2.006,0,0,0,19,5ZM5,8V7H7v3.82A3.01,3.01,0,0,1,5,8Zm7,6a3.009,3.009,0,0,1-3-3V5h6v6A3.009,3.009,0,0,1,12,14Zm7-6a3.01,3.01,0,0,1-2,2.82V7h2Z"/></svg>