<svg xmlns="http://www.w3.org/2000/svg" width="24" height="24" viewBox="0 0 24 24"><defs><style>.a{fill:none;}.b{fill:#939393;}</style></defs><rect class="a" width="24" height="24"/><path class="b" d="M14.17,13.71l1.4-2.42a.353.353,0,0,0-.08-.45L14.01,9.68A5.061,5.061,0,0,0,14.06,9a5.337,5.337,0,0,0-.05-.69l1.48-1.16a.353.353,0,0,0,.08-.45l-1.4-2.42a.354.354,0,0,0-.43-.15L12,4.83a5.142,5.142,0,0,0-1.18-.69l-.26-1.85A.364.364,0,0,0,10.21,2H7.41a.363.363,0,0,0-.35.3L6.8,4.15a5.363,5.363,0,0,0-1.18.69l-1.74-.7a.354.354,0,0,0-.43.15L2.05,6.71a.353.353,0,0,0,.08.45L3.61,8.32A5.061,5.061,0,0,0,3.56,9a5.337,5.337,0,0,0,.05.69L2.13,10.85a.353.353,0,0,0-.08.45l1.4,2.42a.354.354,0,0,0,.43.15l1.74-.7a5.142,5.142,0,0,0,1.18.69l.26,1.85a.364.364,0,0,0,.35.29h2.8a.363.363,0,0,0,.35-.3l.26-1.85A5.363,5.363,0,0,0,12,13.16l1.74.7A.354.354,0,0,0,14.17,13.71ZM8.81,11a2,2,0,1,1,2-2A2.006,2.006,0,0,1,8.81,11Z"/><path class="b" d="M21.92,18.67l-.96-.74a3.128,3.128,0,0,0,.04-.44,2.119,2.119,0,0,0-.04-.44l.95-.74a.229.229,0,0,0,.05-.29l-.9-1.55a.233.233,0,0,0-.28-.1l-1.11.45a3.018,3.018,0,0,0-.76-.44l-.17-1.18a.216.216,0,0,0-.21-.2H16.74a.217.217,0,0,0-.22.19l-.17,1.18a3.585,3.585,0,0,0-.76.44l-1.11-.45a.23.23,0,0,0-.28.1l-.9,1.55a.229.229,0,0,0,.05.29l.95.74a3.242,3.242,0,0,0,0,.88l-.95.74a.229.229,0,0,0-.05.29l.9,1.55a.233.233,0,0,0,.28.1l1.11-.45a3.018,3.018,0,0,0,.76.44l.17,1.18a.225.225,0,0,0,.22.19h1.79a.217.217,0,0,0,.22-.19l.17-1.18a3.285,3.285,0,0,0,.75-.44l1.12.45a.23.23,0,0,0,.28-.1l.9-1.55A.217.217,0,0,0,21.92,18.67Zm-4.29.16a1.35,1.35,0,1,1,1.35-1.35A1.351,1.351,0,0,1,17.63,18.83Z"/></svg>